<?xml version="1.0" encoding="utf-8"?>
<!-- Generator: Adobe Illustrator 20.1.0, SVG Export Plug-In . SVG Version: 6.00 Build 0)  -->
<svg version="1.1" id="Layer_1" xmlns="http://www.w3.org/2000/svg" xmlns:xlink="http://www.w3.org/1999/xlink" x="0px" y="0px"
	 viewBox="0 0 240 240" style="enable-background:new 0 0 240 240;" xml:space="preserve">
<path d="M221.5,0.4H17.7C8,0.4,0.1,8.2,0.1,17.7v204.6c0,9.5,7.9,17.3,17.6,17.3h203.8c9.8,0,17.7-7.7,17.7-17.3V17.7
	C239.2,8.2,231.2,0.4,221.5,0.4z M71,204.2H35.5V90.1H71V204.2z M53.2,74.5c-11.4,0-20.6-9.2-20.6-20.6c0-11.3,9.2-20.6,20.6-20.6
	c11.3,0,20.6,9.2,20.6,20.6C73.8,65.3,64.6,74.5,53.2,74.5z M203.8,204.2h-35.4v-55.5c0-13.2-0.2-30.3-18.4-30.3
	c-18.5,0-21.3,14.4-21.3,29.3v56.4H93.2V90.1h34v15.6h0.5c4.7-9,16.3-18.4,33.6-18.4c35.9,0,42.5,23.6,42.5,54.4V204.2z"/>
</svg>
