<?xml version="1.0" encoding="utf-8"?>
<!-- Generator: Adobe Illustrator 20.1.0, SVG Export Plug-In . SVG Version: 6.00 Build 0)  -->
<svg version="1.1" id="Layer_1" xmlns="http://www.w3.org/2000/svg" xmlns:xlink="http://www.w3.org/1999/xlink" x="0px" y="0px"
	 viewBox="0 0 240 240" style="enable-background:new 0 0 240 240;" xml:space="preserve">
<path d="M226.8,0H13.2C5.9,0,0,5.9,0,13.2v213.5c0,7.3,5.9,13.2,13.2,13.2h114.9V147H96.9v-36.2h31.3V84.1c0-31,18.9-47.9,46.6-47.9
	c13.2,0,24.6,1,27.9,1.4V70h-19.2c-15,0-18,7.1-18,17.6v23.1h35.9l-4.7,36.2h-31.2V240h61.2c7.3,0,13.2-5.9,13.2-13.2V13.2
	C240,5.9,234.1,0,226.8,0z"/>
</svg>
