<?xml version="1.0" encoding="utf-8"?>
<!-- Generator: Adobe Illustrator 20.1.0, SVG Export Plug-In . SVG Version: 6.00 Build 0)  -->
<svg version="1.1" id="Layer_1" xmlns="http://www.w3.org/2000/svg" xmlns:xlink="http://www.w3.org/1999/xlink" x="0px" y="0px"
	 viewBox="0 0 24 20" style="enable-background:new 0 0 24 20;" xml:space="preserve">
<path d="M17.7,10.1c-0.3-0.1-0.6-0.2-0.4-0.6c0.4-0.9,0.4-1.7,0-2.3c-0.8-1.1-2.9-1-5.2,0c0,0-0.8,0.3-0.6-0.3
	c0.4-1.2,0.3-2.1-0.3-2.7c-1.3-1.3-4.8,0-7.7,3C1.3,9.3,0,11.6,0,13.6C0,17.5,5,20,9.9,20c6.4,0,10.6-3.9,10.6-6.8
	C20.5,11.5,19,10.5,17.7,10.1z M9.9,18.3C6,18.7,2.6,17,2.4,14.5C2.1,12,5.1,9.7,9,9.3s7.2,1.3,7.5,3.8
	C16.7,15.6,13.8,17.9,9.9,18.3z M24,7c0-3.9-3.2-7-7.2-7C16.3,0,16,0.4,16,0.8s0.4,0.8,0.8,0.8c3.1,0,5.5,2.4,5.5,5.4
	c0,0.4,0.4,0.8,0.8,0.8S24,7.4,24,7L24,7z M20.6,6.9c-0.4-1.8-1.9-3.2-3.8-3.6c-0.5-0.1-0.9,0.2-1,0.6s0.2,0.9,0.7,1
	C17.8,5.1,18.7,6,19,7.2c0.1,0.4,0.5,0.7,1,0.6C20.4,7.7,20.7,7.3,20.6,6.9z M7.9,11.8c-1.6,0.3-2.6,1.6-2.4,2.8
	c0.3,1.3,1.7,2,3.3,1.7s2.6-1.6,2.4-2.8C10.9,12.2,9.4,11.5,7.9,11.8z"/>
</svg>
