<?xml version="1.0" encoding="utf-8"?>
<!-- Generator: Adobe Illustrator 20.1.0, SVG Export Plug-In . SVG Version: 6.00 Build 0)  -->
<svg version="1.1" id="Layer_1" xmlns="http://www.w3.org/2000/svg" xmlns:xlink="http://www.w3.org/1999/xlink" x="0px" y="0px"
	 viewBox="0 0 24 19" style="enable-background:new 0 0 24 19;" xml:space="preserve">
<path d="M11.1,7.7C9.7,8.9,9,10.5,9,12.3c0,0.3,0,0.6,0.1,0.9s0.1,0.6,0.2,0.9c-0.3,0-0.5,0-0.8,0H7.9c-0.2,0-0.4,0-0.6-0.1
	l-0.5-0.1l-0.6-0.1c-0.3-0.1-0.5-0.1-0.6-0.1l-3,1.5l0.8-2.5C1.1,11,0,9.2,0,7c0-0.8,0.1-1.5,0.4-2.2s0.7-1.4,1.2-1.9
	c0.5-0.6,1.1-1.1,1.8-1.5s1.5-0.8,2.3-1C6.7,0.1,7.6,0,8.5,0c2.1,0,4,0.6,5.6,1.7s2.6,2.5,3,4.1c-0.3,0-0.6,0-0.8,0
	C14.2,5.7,12.5,6.4,11.1,7.7z M10.8,3.8c-0.3,0.2-0.4,0.4-0.4,0.7s0.1,0.5,0.4,0.7c0.3,0.2,0.6,0.3,0.9,0.3c0.2,0,0.4,0,0.6-0.1
	s0.3-0.2,0.4-0.4s0.1-0.3,0.1-0.5c0-0.3-0.1-0.5-0.3-0.7S12,3.5,11.7,3.5S11,3.6,10.8,3.8z M6.5,5.3c0.2-0.2,0.3-0.4,0.3-0.8
	S6.7,4,6.5,3.8S6,3.5,5.7,3.5c-0.2,0-0.4,0-0.6,0.1C4.9,3.7,4.8,3.8,4.6,4C4.5,4.2,4.4,4.3,4.4,4.5S4.5,4.9,4.6,5
	c0.1,0.2,0.3,0.3,0.5,0.4s0.4,0.1,0.6,0.1C6,5.6,6.3,5.5,6.5,5.3z M21,16.9l0.6,2l-2.3-1.2c-1.1,0.3-2,0.4-2.6,0.4
	c-2,0-3.7-0.6-5.1-1.8s-2.1-2.6-2.1-4.2c0-1.7,0.7-3.1,2.1-4.2c1.4-1.2,3.1-1.8,5.1-1.8c1.3,0,2.4,0.3,3.6,0.8
	c1.1,0.5,2,1.3,2.7,2.2s1,1.9,1,3C24,13.9,23,15.5,21,16.9z M14.9,11.1c0.1,0,0.2-0.1,0.3-0.2c0.1-0.1,0.2-0.2,0.2-0.3
	c0.1-0.1,0.1-0.2,0.1-0.3c0-0.2-0.1-0.4-0.3-0.6s-0.5-0.3-0.8-0.3c-0.1,0-0.3,0-0.4,0.1c-0.1,0.1-0.2,0.2-0.3,0.3s-0.1,0.3-0.1,0.4
	c0,0.2,0.1,0.4,0.3,0.6c0.2,0.2,0.4,0.3,0.6,0.3C14.6,11.1,14.7,11.1,14.9,11.1z M19.5,11.1c0.1,0,0.3-0.1,0.3-0.2
	c0.1-0.1,0.2-0.2,0.2-0.3c0.1-0.1,0.1-0.2,0.1-0.3c0-0.2-0.1-0.4-0.3-0.6c-0.2-0.2-0.5-0.3-0.8-0.3c-0.2,0-0.4,0.1-0.6,0.3
	s-0.3,0.4-0.3,0.6c0,0.1,0,0.3,0.1,0.4s0.2,0.2,0.3,0.3s0.3,0.1,0.4,0.1C19.3,11.1,19.4,11.1,19.5,11.1z"/>
</svg>
