<svg id="Layer_1" data-name="Layer 1" xmlns="http://www.w3.org/2000/svg" viewBox="0 0 325.92 362.92"><defs><style>.cls-1{fill:#231f20;}.cls-2{fill:#7c2427;}</style></defs><title>Artboard 1</title><path class="cls-1" d="M63.7,343.83v-.36c.71,0,1.33-.09,1.33-1v-9.28c0-.88-.62-1-1.28-1v-.36h4.67v.36c-1,0-1.64.09-1.64,1v4.33h6.33v-4.33c0-.88-.62-1-1.52-1v-.36h4.6v.36c-.71,0-1.33.09-1.33,1v9.28c0,.88.47,1,1.3,1v.36H71.59v-.36c.9,0,1.52-.09,1.52-1V338H66.78v4.48c0,.88.42,1,1.45,1v.36Z"/><path class="cls-1" d="M82.34,344A3.94,3.94,0,1,1,86,340.09,3.68,3.68,0,0,1,82.34,344Zm0-7.53c-1.61,0-2.2,1.83-2.2,3.6s.59,3.6,2.2,3.6,2.2-1.83,2.2-3.6S83.95,336.49,82.34,336.49Z"/><path class="cls-1" d="M88.24,343.83v-.33c.78-.05,1-.05,1-1v-4.29a1,1,0,0,0-.85-1.09V337c.78-.22,1.47-.54,2.21-.81v1.31A3.11,3.11,0,0,1,93,336.17a2.49,2.49,0,0,1,2.53,2.28v4.1c0,.9.47.9,1.05,1v.33H93.12v-.33c.78-.05,1-.05,1-1v-3.81a1.63,1.63,0,0,0-1.73-1.82c-.74,0-1.78.73-1.78,1.52v4.1c0,.9.22.9,1,1v.33Z"/><path class="cls-1" d="M104.27,336.86a3.61,3.61,0,0,1,1.4-.61.65.65,0,0,1,.67.67.51.51,0,0,1-.54.54c-.48,0-.78-.73-1.31-.33a2.12,2.12,0,0,1,.55,1.49,2.64,2.64,0,0,1-2.92,2.61,5.86,5.86,0,0,1-1.21-.19c-.4.26-.83.52-.83,1.06,0,1.16,1.64,1,2.42,1,1.44.09,3.91.12,3.91,2.15s-2.61,2.28-4.19,2.28c-1.07,0-3.58-.1-3.58-1.63a2.16,2.16,0,0,1,1.54-1.89,1.63,1.63,0,0,1-.88-1.44c0-.93.52-1.33,1.28-1.73a2.29,2.29,0,0,1-1.25-2.21,2.61,2.61,0,0,1,2.75-2.49A3.92,3.92,0,0,1,104.27,336.86Zm-1.66,10.4c1.06,0,2.87-.17,2.87-1.57,0-.92-.76-1.23-1.56-1.25a16.33,16.33,0,0,1-3.41-.24,1.83,1.83,0,0,0-.92,1.44C99.6,347.24,101.43,347.26,102.61,347.26Zm-.43-6.4c1.16,0,1.52-1.16,1.52-2.13s-.33-2.2-1.51-2.2-1.49,1.26-1.49,2.23S101,340.86,102.18,340.86Z"/><path class="cls-1" d="M113.79,343.83v-.36c.83,0,1.25-.09,1.25-1v-9.28c0-.88-.62-1-1.28-1v-.36h4.45v.36c-.8,0-1.42.09-1.42,1v4.86l3.77-4c.28-.29.73-.78.73-1.19,0-.59-.9-.59-1.28-.61v-.36h4.08v.36a3.55,3.55,0,0,0-2.56,1.37l-3,3.2,5,6.23a1.55,1.55,0,0,0,1.25.42v.36H122l-4.66-5.73-.55.55v3.84c0,.88.62,1,1.45,1v.36Z"/><path class="cls-1" d="M130.43,344a3.94,3.94,0,1,1,3.67-3.93A3.68,3.68,0,0,1,130.43,344Zm0-7.53c-1.61,0-2.2,1.83-2.2,3.6s.59,3.6,2.2,3.6,2.2-1.83,2.2-3.6S132,336.49,130.43,336.49Z"/><path class="cls-1" d="M136.33,343.83v-.33c.78-.05,1-.05,1-1v-4.29a1,1,0,0,0-.85-1.09V337c.78-.22,1.47-.54,2.21-.81v1.31a3.11,3.11,0,0,1,2.35-1.31,2.49,2.49,0,0,1,2.53,2.28v4.1c0,.9.47.9,1.05,1v.33h-3.43v-.33c.78-.05,1-.05,1-1v-3.81a1.63,1.63,0,0,0-1.73-1.82c-.74,0-1.78.73-1.78,1.52v4.1c0,.9.22.9,1,1v.33Z"/><path class="cls-1" d="M152.36,336.86a3.61,3.61,0,0,1,1.4-.61.65.65,0,0,1,.67.67.51.51,0,0,1-.54.54c-.48,0-.78-.73-1.31-.33a2.12,2.12,0,0,1,.55,1.49,2.64,2.64,0,0,1-2.92,2.61A5.86,5.86,0,0,1,149,341c-.4.26-.83.52-.83,1.06,0,1.16,1.64,1,2.42,1,1.44.09,3.91.12,3.91,2.15s-2.61,2.28-4.19,2.28c-1.07,0-3.58-.1-3.58-1.63a2.16,2.16,0,0,1,1.54-1.89,1.63,1.63,0,0,1-.88-1.44c0-.93.52-1.33,1.28-1.73a2.29,2.29,0,0,1-1.25-2.21,2.61,2.61,0,0,1,2.75-2.49A3.92,3.92,0,0,1,152.36,336.86Zm-1.66,10.4c1.06,0,2.87-.17,2.87-1.57,0-.92-.76-1.23-1.56-1.25a16.31,16.31,0,0,1-3.41-.24,1.83,1.83,0,0,0-.92,1.44C147.69,347.24,149.52,347.26,150.7,347.26Zm-.43-6.4c1.16,0,1.52-1.16,1.52-2.13s-.33-2.2-1.51-2.2-1.49,1.26-1.49,2.23S149.12,340.86,150.26,340.86Z"/><path class="cls-1" d="M186,340.22h.35c.22,1.83,1.14,3.5,3.3,3.5a2.48,2.48,0,0,0,2.79-2.51c0-1.75-1.59-2-2.89-2.44-2-.66-3.18-1.26-3.18-3.55a3.48,3.48,0,0,1,3.7-3.48,4.28,4.28,0,0,1,2.79,1l.52-.45h.24v3.55h-.31a7.35,7.35,0,0,0-1.11-2.77,2.5,2.5,0,0,0-1.9-1,2.41,2.41,0,0,0-2.53,2.66c0,1.51,1.14,1.87,2.35,2.23,1.89.57,3.82,1.35,3.82,3.67s-1.9,3.41-4.12,3.41a5.44,5.44,0,0,1-3-.88l-.66.64H186Z"/><path class="cls-1" d="M196.3,343.83v-.33c.78-.05,1-.05,1-1v-9c0-.54-.43-.69-.88-.8v-.14c.74-.31,1.51-.59,2.25-.88v5.66a3.42,3.42,0,0,1,2.46-1.23,2.18,2.18,0,0,1,1.94,1.05,3.33,3.33,0,0,1,.43,1.85v3.48c0,.9.22.9,1,1v.33h-3.29v-.33c.71-.05.93-.05.93-1v-3.48a2.48,2.48,0,0,0-.24-1.31,1.59,1.59,0,0,0-1.4-.88c-1,0-1.33.59-1.82,1.09v4.59c0,.9.22.9,1,1v.33Z"/><path class="cls-1" d="M210.8,337.57c0-.69-.43-.9-1.07-.9s-1.52.38-1.52.83c0,.1,0,.21,0,.38,0,.66-.14,1.12-.88,1.12a.57.57,0,0,1-.52-.59,1.5,1.5,0,0,1,.62-1.06,5.23,5.23,0,0,1,3-1.19,1.51,1.51,0,0,1,1.63,1.68v4.64c0,.29,0,.81.4.81s.43-.36.48-.59h.28c-.09.83-.43,1.32-1.26,1.32a1.26,1.26,0,0,1-1.19-1.19,3.86,3.86,0,0,1-2.44,1.19,1.53,1.53,0,0,1-1.54-1.47c0-1.9,2.56-2.49,4-3.1Zm0,2.27c-.78.35-2.79.92-2.79,2a1.25,1.25,0,0,0,1.25,1.3,2.37,2.37,0,0,0,1.54-.67Z"/><path class="cls-1" d="M215.37,343.83v-.33c.78-.05,1-.05,1-1v-4.29a1,1,0,0,0-.85-1.09V337c.78-.22,1.47-.54,2.21-.81v1.31a3.11,3.11,0,0,1,2.35-1.31,2.49,2.49,0,0,1,2.53,2.28v4.1c0,.9.47.9,1.05,1v.33h-3.43v-.33c.78-.05,1-.05,1-1v-3.81a1.63,1.63,0,0,0-1.73-1.82c-.74,0-1.78.73-1.78,1.52v4.1c0,.9.22.9,1,1v.33Z"/><path class="cls-1" d="M231.4,336.86a3.61,3.61,0,0,1,1.4-.61.65.65,0,0,1,.67.67.51.51,0,0,1-.54.54c-.48,0-.78-.73-1.31-.33a2.12,2.12,0,0,1,.55,1.49,2.64,2.64,0,0,1-2.92,2.61A5.86,5.86,0,0,1,228,341c-.4.26-.83.52-.83,1.06,0,1.16,1.64,1,2.42,1,1.44.09,3.91.12,3.91,2.15s-2.61,2.28-4.19,2.28c-1.07,0-3.58-.1-3.58-1.63a2.16,2.16,0,0,1,1.54-1.89,1.63,1.63,0,0,1-.88-1.44c0-.93.52-1.33,1.28-1.73a2.29,2.29,0,0,1-1.25-2.21,2.61,2.61,0,0,1,2.75-2.49A3.92,3.92,0,0,1,231.4,336.86Zm-1.66,10.4c1.06,0,2.87-.17,2.87-1.57,0-.92-.76-1.23-1.56-1.25a16.31,16.31,0,0,1-3.41-.24,1.83,1.83,0,0,0-.92,1.44C226.73,347.24,228.56,347.26,229.74,347.26Zm-.43-6.4c1.16,0,1.52-1.16,1.52-2.13s-.33-2.2-1.51-2.2-1.49,1.26-1.49,2.23S228.16,340.86,229.3,340.86Z"/><path class="cls-1" d="M235.35,343.83v-.33c.78-.05,1-.05,1-1v-9c0-.54-.43-.69-.88-.8v-.14c.74-.31,1.51-.59,2.25-.88v5.66a3.42,3.42,0,0,1,2.46-1.23,2.18,2.18,0,0,1,1.94,1.05,3.33,3.33,0,0,1,.43,1.85v3.48c0,.9.22.9,1,1v.33h-3.29v-.33c.71-.05.93-.05.93-1v-3.48a2.48,2.48,0,0,0-.24-1.31,1.59,1.59,0,0,0-1.4-.88c-1,0-1.33.59-1.82,1.09v4.59c0,.9.22.9,1,1v.33Z"/><path class="cls-1" d="M249.85,337.57c0-.69-.43-.9-1.07-.9s-1.52.38-1.52.83c0,.1,0,.21,0,.38,0,.66-.14,1.12-.88,1.12a.57.57,0,0,1-.52-.59,1.5,1.5,0,0,1,.62-1.06,5.23,5.23,0,0,1,3-1.19,1.51,1.51,0,0,1,1.63,1.68v4.64c0,.29,0,.81.4.81s.43-.36.48-.59h.28c-.09.83-.43,1.32-1.26,1.32a1.26,1.26,0,0,1-1.19-1.19,3.86,3.86,0,0,1-2.44,1.19,1.53,1.53,0,0,1-1.54-1.47c0-1.9,2.56-2.49,4-3.1Zm0,2.27c-.78.35-2.79.92-2.79,2a1.25,1.25,0,0,0,1.25,1.3,2.37,2.37,0,0,0,1.54-.67Z"/><path class="cls-1" d="M254.46,343.83v-.33c.78-.05,1-.05,1-1V338.4c0-.36,0-.85-.31-1.06a1.61,1.61,0,0,0-.62-.17V337c.74-.31,1.52-.62,2.3-.92v6.47c0,.9.23.9,1,1v.33Zm2.44-11.21a.88.88,0,0,1-.83.9.92.92,0,0,1-.9-.9.87.87,0,1,1,1.73,0Z"/><path class="cls-1" d="M37.42,283.27v.36a3.73,3.73,0,0,0-2,.8,5.49,5.49,0,0,0-1.33,1.7c-.37.7-.78,1.62-1.25,2.77a1.3,1.3,0,0,0-.21.51l-9,25.77h-.3L12.79,287.3a.65.65,0,0,0-.08-.26,5.72,5.72,0,0,0-1.61-2.62,3.79,3.79,0,0,0-2.5-.8v-.36H18.8v.36a6.14,6.14,0,0,0-2.07.51c-.52.25-.78.85-.78,1.81a7.19,7.19,0,0,0,.34,1.56c0,.07,0,.14.07.22l.05.18,8.17,21.83h.08l7-20.33a10.59,10.59,0,0,0,.74-3.15c0-1.11-.24-1.81-.71-2.11a4.59,4.59,0,0,0-2.1-.53v-.36Z"/><path class="cls-1" d="M48.07,283.63v-.36H66.6v4.9h-.3q0-3.93-5.23-3.92H54.59v14.12h5.7a7.82,7.82,0,0,0,3-.55,2.71,2.71,0,0,0,1.52-2.51h.32v7h-.32a3.8,3.8,0,0,0-.72-1.85,2.79,2.79,0,0,0-1-.85,2.49,2.49,0,0,0-.92-.21,9.39,9.39,0,0,0-1.58-.13h-6v11a4.58,4.58,0,0,0,.47,2.15q.48.91,2.21.91h4.62a6.75,6.75,0,0,0,2.75-.49,4.1,4.1,0,0,0,1.7-1.35,8.14,8.14,0,0,0,1-2.09h.29l-1.08,4.88H48.07V314h.42a3,3,0,0,0,1.94-.8,3.25,3.25,0,0,0,1-2.62V287.18a4.71,4.71,0,0,0-.64-2.49,2.42,2.42,0,0,0-2.25-1.06Z"/><path class="cls-1" d="M79.13,283.72h-.42v-.44H89.47a10.81,10.81,0,0,1,4.4.8,7.38,7.38,0,0,1,2.81,2,7.88,7.88,0,0,1,1.43,2.61,9,9,0,0,1,.43,2.7,7.71,7.71,0,0,1-.71,3.24,7,7,0,0,1-2.17,2.67A8.46,8.46,0,0,1,92,298.85v.08a13,13,0,0,1,5.15,5.36L100,309a14.74,14.74,0,0,0,3,4,4.55,4.55,0,0,0,2.27,1v.33H99.63c-.24-.31-.47-.61-.67-.9l-.68-.92-.62-1a7.6,7.6,0,0,0-.5-.73l-3.72-6.14a15.52,15.52,0,0,0-2.29-3A8.77,8.77,0,0,0,89,300a6.48,6.48,0,0,0-1.83-.63,12.39,12.39,0,0,0-1.91-.12v11.38q0,3.31,3.38,3.42v.33h-9.9V314a4.83,4.83,0,0,0,1.65-.35,2.64,2.64,0,0,0,1.19-1.06,3.7,3.7,0,0,0,.48-2V287.09a3.26,3.26,0,0,0-.91-2.62A3,3,0,0,0,79.13,283.72Zm6.1,14.69H87a11.26,11.26,0,0,0,4.57-.8,5.28,5.28,0,0,0,2.59-2.29,7.56,7.56,0,0,0,.8-3.64,9,9,0,0,0-.72-3.51,6.49,6.49,0,0,0-2.44-2.89,9.81,9.81,0,0,0-6.58-1Z"/><path class="cls-1" d="M148.76,283.27v.36c-.59.07-1,.13-1.27.18a2.06,2.06,0,0,0-.84.43,2.56,2.56,0,0,0-.9,1,6.18,6.18,0,0,0-.22,1.69.6.6,0,0,0,0,.38l1.08,23.09a5,5,0,0,0,.7,2.51Q148,314,150.15,314v.33H140.08V314a3.7,3.7,0,0,0,2.68-1.15,4.5,4.5,0,0,0,.59-2.92l-1.08-23.89h-.08l-11,28.3-10.38-27.27h-.08l-1.12,22a8.62,8.62,0,0,0,.22,2.82,2.48,2.48,0,0,0,1,1.44,5.41,5.41,0,0,0,2,.64v.33H115V314a3.42,3.42,0,0,0,2.28-.72,3.24,3.24,0,0,0,1-1.75,18.67,18.67,0,0,0,.37-2.86l1.25-22.8a1,1,0,0,0-.26-.45,4.67,4.67,0,0,0-.62-.66,4.18,4.18,0,0,0-.7-.51,3.44,3.44,0,0,0-1.25-.52q-.53-.07-1.48-.14v-.36h7.22l9.62,25.44,9.78-25.44Z"/><path class="cls-1" d="M171.25,283.27v.36a3.66,3.66,0,0,0-2.36.79,3.14,3.14,0,0,0-1,2.6v23.6a3.1,3.1,0,0,0,1,2.61,3.63,3.63,0,0,0,2.3.82v.33h-9.86V314a3.61,3.61,0,0,0,2.33-.8,3.17,3.17,0,0,0,1-2.62V287a3.09,3.09,0,0,0-1-2.66,3.81,3.81,0,0,0-2.33-.72v-.36Z"/><path class="cls-1" d="M183.08,314h.42a2.73,2.73,0,0,0,2-.9,3.46,3.46,0,0,0,.88-2.52V287.14a3.24,3.24,0,0,0-1-2.71,4,4,0,0,0-2.33-.8v-.36H193v.36a4.13,4.13,0,0,0-2.32.79,3.17,3.17,0,0,0-1,2.72v22.69a3.36,3.36,0,0,0,1,2.81,5.51,5.51,0,0,0,3.32.78h2.68a7.67,7.67,0,0,0,2.8-.42,3.67,3.67,0,0,0,1.66-1.29,12.32,12.32,0,0,0,1.24-2.45h.36l-1.18,5.11H183.08Z"/><path class="cls-1" d="M223.2,283.27v.36a3.67,3.67,0,0,0-2.37.79,3.13,3.13,0,0,0-1,2.6v23.6a3.11,3.11,0,0,0,1,2.61,3.64,3.64,0,0,0,2.3.82v.33h-9.86V314a3.62,3.62,0,0,0,2.34-.8,3.17,3.17,0,0,0,1-2.62V287a3.09,3.09,0,0,0-1-2.66,3.82,3.82,0,0,0-2.34-.72v-.36Z"/><path class="cls-1" d="M268.53,298.85a16,16,0,0,1-2.16,8.12,16.33,16.33,0,0,1-5.9,6,15.86,15.86,0,0,1-8.27,2.23,16.41,16.41,0,0,1-16.53-16.46,16.06,16.06,0,0,1,1.3-6.43,15.89,15.89,0,0,1,3.63-5.25,16.84,16.84,0,0,1,5.32-3.46,16.46,16.46,0,0,1,17.62,3.33,16,16,0,0,1,3.66,5.26A16.37,16.37,0,0,1,268.53,298.85Zm-3.71.08q0-6.2-2.2-9.71a11.28,11.28,0,0,0-5.06-4.69,14.08,14.08,0,0,0-5.41-1.19,13.92,13.92,0,0,0-4.07.64,11.45,11.45,0,0,0-4.11,2.36,12.48,12.48,0,0,0-3.28,4.81,20,20,0,0,0-1.29,7.66,20.84,20.84,0,0,0,1.07,7,13.08,13.08,0,0,0,2.93,4.88,11.32,11.32,0,0,0,4.12,2.72,13.31,13.31,0,0,0,4.67.84,13.48,13.48,0,0,0,4.41-.77,11.27,11.27,0,0,0,4.07-2.52,12.6,12.6,0,0,0,3-4.72A20.31,20.31,0,0,0,264.81,298.93Z"/><path class="cls-1" d="M313.23,283.27v.36a7.1,7.1,0,0,0-1.87.46,2.14,2.14,0,0,0-1.06,1.2,6.84,6.84,0,0,0-.38,2.59v27.27h-.21l-23.87-26.64v19.12a23.89,23.89,0,0,0,.19,3.55,4.26,4.26,0,0,0,.55,1.67,3.31,3.31,0,0,0,2.72,1.18v.33H281.5V314a4,4,0,0,0,2-.56,2.9,2.9,0,0,0,1-1.82,19.3,19.3,0,0,0,.3-4V287.38l-1-1.15a8.81,8.81,0,0,0-2.2-2,7.59,7.59,0,0,0-2-.62v-.36h5.85L309,309.61V289.54a23.54,23.54,0,0,0-.18-3.38,2.92,2.92,0,0,0-.95-1.79,3.87,3.87,0,0,0-2.42-.75v-.36Z"/><path class="cls-2" d="M280.23,159.55a36.06,36.06,0,0,1-8-11.18q-3.3-6.88-7.45-18.28a3.14,3.14,0,0,0-.14-.46l-25-82.44-7.52-28.49h-3.26L193.46,151.64l-28.55-90L158,39.93h-3.13L141.18,83.54l-41,126.81-.78,2.46-.62,1.92-1.31,4.69H97L68.91,129.26,66,120.08,64.2,113q-4.42-13.76-4.42-20.7,0-11,4.23-13.9t12.58-3.48V72.58H29.82v2.36a21.17,21.17,0,0,1,11.76,5.28,36.25,36.25,0,0,1,8,11.19q3.28,6.88,7.45,18.27c.44,1,.44,1.23,1.26,3.33l4.9,16.24L66,138.33,90,213.78,91,217l3.48,11,.1.33,6.88,21.7h3.14l1.24-3.83,8.69-26.74L162,70.83h.51l28.06,89.88L177.47,202l-.76,2.4-1.64,5.16c-.1.42-.2.79-.3,1.13,0,.08,0,.13-.06.19l-2.52,8.22a22.77,22.77,0,0,0-.85,2.75,23.4,23.4,0,0,0-.6,4.28c0,.35,0,.69,0,1A22.83,22.83,0,0,0,193.39,250h.14a22.83,22.83,0,0,0,22.84-22.83c0-.35,0-.69-.05-1a22.92,22.92,0,0,0-.53-4,22.13,22.13,0,0,0-1.17-3.71l-2-6.44-.62-2c0-.14-.07-.25-.1-.39l-2.46-7.75L207.86,197l-11.52-36.31L230.58,30.06l2.61,8.25L255,118l0,.06.33,1.1.53,1.93.09.09,1.7,5.56Q262,140.52,262,147.46q0,11-4.23,13.89t-12.57,3.48v2.36H292v-2.36A21.16,21.16,0,0,1,280.23,159.55Zm-78.16,37.81,3.23,10.3.61,1.95a120.62,120.62,0,0,1,3.48,12.91c.35,1.74.6,3.32.75,4.75a16.57,16.57,0,0,1-9.52,14.92,23.83,23.83,0,0,1-14.17,0,16.57,16.57,0,0,1-9.53-15,17,17,0,0,1,.33-3.23c0-.07,0-.14,0-.22A113.86,113.86,0,0,1,181,209.61l.58-1.84,3.24-10.35,8.63-27.53Z"/></svg>